<?xml version="1.0" encoding="UTF-8" standalone="no" ?>
<!DOCTYPE svg PUBLIC "-//W3C//DTD SVG 1.1//EN" "http://www.w3.org/Graphics/SVG/1.1/DTD/svg11.dtd">
<svg xmlns="http://www.w3.org/2000/svg" xmlns:xlink="http://www.w3.org/1999/xlink" version="1.1" width="1080" height="1080" viewBox="0 0 1080 1080" xml:space="preserve">
<desc>Created with Fabric.js 5.2.4</desc>
<defs>
</defs>
<rect x="0" y="0" width="100%" height="100%" fill="transparent"></rect>
<g transform="matrix(1 0 0 1 540 540)" id="9760270a-e5c5-431e-9a32-096fbe658b45"  >
<rect style="stroke: none; stroke-width: 1; stroke-dasharray: none; stroke-linecap: butt; stroke-dashoffset: 0; stroke-linejoin: miter; stroke-miterlimit: 4; fill: rgb(255,255,255); fill-rule: nonzero; opacity: 1; visibility: hidden;" vector-effect="non-scaling-stroke"  x="-540" y="-540" rx="0" ry="0" width="1080" height="1080" />
</g>
<g transform="matrix(1 0 0 1 540 540)" id="c13b2bc4-dc48-4f3c-b778-2c93506bd09f"  >
</g>
<g transform="matrix(1 0 0 1 367.2 539.42)"  >
<path style="stroke: rgb(231,64,60); stroke-width: 6; stroke-dasharray: 1 1; stroke-linecap: butt; stroke-dashoffset: 0; stroke-linejoin: miter; stroke-miterlimit: 4; fill: none; fill-rule: nonzero; opacity: 1;" vector-effect="non-scaling-stroke"  transform=" translate(-41, -41)" d="M 3 4 L 73.5219 4 C 75.0701 4 76.5158 4.77374 77.3746 6.0619 L 77.3746 6.0619 C 78.3672 7.55076 78.413 9.47827 77.4924 11.0127 L 77.4166 11.1389 C 76.5378 12.6037 74.9548 13.5 73.2466 13.5 L 41 13.5 L 7.92443 13.5 C 6.14608 13.5 4.53453 14.5473 3.81228 16.1724 L 3.81228 16.1724 C 3.29515 17.3359 3.29515 18.6641 3.81228 19.8276 L 3.81228 19.8276 C 4.53453 21.4527 6.14608 22.5 7.92443 22.5 L 61.0219 22.5 C 62.5701 22.5 64.0158 23.2737 64.8746 24.5619 L 64.8746 24.5619 C 65.8672 26.0508 65.913 27.9783 64.9924 29.5127 L 64.9166 29.6389 C 64.0378 31.1037 62.4548 32 60.7466 32 L 32.5161 32 C 30.6676 32 28.9778 33.0444 28.1512 34.6977 L 28.0882 34.8236 C 27.4072 36.1856 27.4422 37.796 28.1817 39.1271 L 28.1817 39.1271 C 28.9954 40.5917 30.5391 41.5 32.2145 41.5 L 51.1472 41.5 C 52.882 41.5 54.4541 42.5216 55.1586 44.1069 L 55.2136 44.2306 C 55.7115 45.3509 55.6824 46.6353 55.1341 47.7319 L 55.1341 47.7319 C 54.439 49.1219 53.0183 50 51.4642 50 L 20.7145 50 C 19.0391 50 17.4954 50.9083 16.6817 52.3729 L 16.6817 52.3729 C 15.9422 53.704 15.9072 55.3144 16.5882 56.6764 L 16.6512 56.8023 C 17.4778 58.4556 19.1676 59.5 21.0161 59.5 L 74.0756 59.5 C 75.8539 59.5 77.4655 60.5473 78.1877 62.1724 L 78.1877 62.1724 C 78.7049 63.3359 78.7049 64.6641 78.1877 65.8276 L 78.1877 65.8276 C 77.4655 67.4527 75.8539 68.5 74.0756 68.5 L 9.77191 68.5 C 8.33844 68.5 6.98525 69.1618 6.10518 70.2933 L 6.10518 70.2933 C 4.85374 71.9023 4.79745 74.1392 5.96638 75.8091 L 6.05238 75.932 C 6.95966 77.2281 8.44225 78 10.0243 78 L 79 78" stroke-linecap="round" />
</g>
<g transform="matrix(1 0 0 1 367.2 539.42)"  >
<path style="stroke: none; stroke-width: 1; stroke-dasharray: none; stroke-linecap: butt; stroke-dashoffset: 0; stroke-linejoin: miter; stroke-miterlimit: 4; fill: none; fill-rule: nonzero; opacity: 1;" vector-effect="non-scaling-stroke"  transform=" translate(-41, -41)" d="M 3 4 L 73.5219 4 C 75.0701 4 76.5158 4.77374 77.3746 6.0619 L 77.3746 6.0619 C 78.3672 7.55076 78.413 9.47827 77.4924 11.0127 L 77.4166 11.1389 C 76.5378 12.6037 74.9548 13.5 73.2466 13.5 L 41 13.5 L 7.92443 13.5 C 6.14608 13.5 4.53453 14.5473 3.81228 16.1724 L 3.81228 16.1724 C 3.29515 17.3359 3.29515 18.6641 3.81228 19.8276 L 3.81228 19.8276 C 4.53453 21.4527 6.14608 22.5 7.92443 22.5 L 61.0219 22.5 C 62.5701 22.5 64.0158 23.2737 64.8746 24.5619 L 64.8746 24.5619 C 65.8672 26.0508 65.913 27.9783 64.9924 29.5127 L 64.9166 29.6389 C 64.0378 31.1037 62.4548 32 60.7466 32 L 32.5161 32 C 30.6676 32 28.9778 33.0444 28.1512 34.6977 L 28.0882 34.8236 C 27.4072 36.1856 27.4422 37.796 28.1817 39.1271 L 28.1817 39.1271 C 28.9954 40.5917 30.5391 41.5 32.2145 41.5 L 51.1472 41.5 C 52.882 41.5 54.4541 42.5216 55.1586 44.1069 L 55.2136 44.2306 C 55.7115 45.3509 55.6824 46.6353 55.1341 47.7319 L 55.1341 47.7319 C 54.439 49.1219 53.0183 50 51.4642 50 L 20.7145 50 C 19.0391 50 17.4954 50.9083 16.6817 52.3729 L 16.6817 52.3729 C 15.9422 53.704 15.9072 55.3144 16.5882 56.6764 L 16.6512 56.8023 C 17.4778 58.4556 19.1676 59.5 21.0161 59.5 L 74.0756 59.5 C 75.8539 59.5 77.4655 60.5473 78.1877 62.1724 L 78.1877 62.1724 C 78.7049 63.3359 78.7049 64.6641 78.1877 65.8276 L 78.1877 65.8276 C 77.4655 67.4527 75.8539 68.5 74.0756 68.5 L 9.77191 68.5 C 8.33844 68.5 6.98525 69.1618 6.10518 70.2933 L 6.10518 70.2933 C 4.85374 71.9023 4.79745 74.1392 5.96638 75.8091 L 6.05238 75.932 C 6.95966 77.2281 8.44225 78 10.0243 78 L 79 78" stroke-linecap="round" />
</g>
<g transform="matrix(1 0 0 1 585.78 543.96)"  >
<path style="stroke: rgb(255,255,255); stroke-width: 2; stroke-dasharray: 1 1; stroke-linecap: butt; stroke-dashoffset: 0; stroke-linejoin: miter; stroke-miterlimit: 4; fill: none; fill-rule: nonzero; opacity: 1;" vector-effect="non-scaling-stroke"  transform=" translate(-259.58, -45.54)" d="M 94.008 80 L 94.008 31.04 L 102.936 31.04 L 102.936 80 L 94.008 80 Z M 98.52 23.264 C 96.92 23.264 95.512 22.688 94.296 21.536 C 93.144 20.32 92.568 18.912 92.568 17.312 C 92.568 15.712 93.144 14.336 94.296 13.184 C 95.512 11.968 96.92 11.36 98.52 11.36 C 100.12 11.36 101.496 11.968 102.648 13.184 C 103.864 14.336 104.472 15.712 104.472 17.312 C 104.472 18.912 103.864 20.32 102.648 21.536 C 101.496 22.688 100.12 23.264 98.52 23.264 Z M 116.883 80 L 116.883 9.92 L 125.715 9.92 L 125.715 51.584 L 139.155 51.584 L 152.019 31.04 L 161.811 31.04 L 147.891 52.928 C 152.499 54.272 156.083 56.8 158.643 60.512 C 161.267 64.16 162.579 68.416 162.579 73.28 L 162.579 80 L 153.651 80 L 153.651 73.28 C 153.651 70.592 153.043 68.192 151.827 66.08 C 150.675 63.968 149.043 62.304 146.931 61.088 C 144.819 59.808 142.387 59.168 139.635 59.168 L 125.715 59.168 L 125.715 80 L 116.883 80 Z M 195.548 81.152 C 190.812 81.152 186.716 80.032 183.26 77.792 C 179.804 75.488 177.148 72.384 175.292 68.48 C 173.436 64.576 172.508 60.256 172.508 55.52 C 172.508 50.72 173.532 46.4 175.58 42.56 C 177.628 38.656 180.572 35.584 184.412 33.344 C 188.252 31.04 192.86 29.888 198.236 29.888 C 203.42 29.888 207.868 31.008 211.58 33.248 C 215.292 35.488 218.14 38.528 220.124 42.368 C 222.172 46.208 223.196 50.496 223.196 55.232 L 223.196 80 L 214.268 80 L 214.268 70.016 L 214.076 70.016 C 213.116 71.872 211.804 73.664 210.14 75.392 C 208.54 77.056 206.524 78.432 204.092 79.52 C 201.66 80.608 198.812 81.152 195.548 81.152 Z M 197.852 73.568 C 201.052 73.568 203.868 72.8 206.3 71.264 C 208.796 69.664 210.716 67.488 212.06 64.736 C 213.468 61.92 214.172 58.784 214.172 55.328 C 214.172 51.936 213.5 48.896 212.156 46.208 C 210.876 43.52 209.02 41.408 206.588 39.872 C 204.156 38.272 201.308 37.472 198.044 37.472 C 194.588 37.472 191.612 38.272 189.116 39.872 C 186.684 41.472 184.796 43.648 183.452 46.4 C 182.172 49.088 181.532 52.16 181.532 55.616 C 181.532 58.944 182.172 61.984 183.452 64.736 C 184.732 67.424 186.588 69.568 189.02 71.168 C 191.452 72.768 194.396 73.568 197.852 73.568 Z M 248.298 80 C 244.138 80 240.842 78.752 238.41 76.256 C 235.978 73.696 234.762 70.56 234.762 66.848 C 234.762 64.48 235.242 62.464 236.202 60.8 C 237.162 59.136 238.73 57.408 240.906 55.616 L 271.338 30.464 C 272.426 29.632 273.194 28.864 273.642 28.16 C 274.09 27.456 274.314 26.592 274.314 25.568 C 274.314 24.8 274.09 24.064 273.642 23.36 C 273.194 22.656 272.618 22.08 271.914 21.632 C 271.274 21.184 270.538 20.96 269.706 20.96 L 236.874 20.96 L 236.874 12.8 L 270.57 12.8 C 273.322 12.8 275.69 13.376 277.674 14.528 C 279.722 15.68 281.258 17.248 282.282 19.232 C 283.37 21.152 283.914 23.328 283.914 25.76 C 283.914 28.128 283.402 30.24 282.378 32.096 C 281.418 33.888 279.914 35.616 277.866 37.28 L 247.434 62.336 C 246.666 62.912 246.026 63.424 245.514 63.872 C 245.066 64.32 244.746 64.8 244.554 65.312 C 244.426 65.76 244.362 66.368 244.362 67.136 C 244.362 67.904 244.554 68.672 244.938 69.44 C 245.386 70.144 245.962 70.72 246.666 71.168 C 247.434 71.616 248.298 71.84 249.258 71.84 L 283.914 71.84 L 283.914 80 L 248.298 80 Z M 316.11 81.152 C 311.374 81.152 307.278 80.032 303.822 77.792 C 300.366 75.488 297.71 72.384 295.854 68.48 C 293.998 64.576 293.07 60.256 293.07 55.52 C 293.07 50.72 294.094 46.4 296.142 42.56 C 298.19 38.656 301.134 35.584 304.974 33.344 C 308.814 31.04 313.422 29.888 318.798 29.888 C 323.982 29.888 328.43 31.008 332.142 33.248 C 335.854 35.488 338.702 38.528 340.686 42.368 C 342.734 46.208 343.758 50.496 343.758 55.232 L 343.758 80 L 334.83 80 L 334.83 70.016 L 334.638 70.016 C 333.678 71.872 332.366 73.664 330.702 75.392 C 329.102 77.056 327.086 78.432 324.654 79.52 C 322.222 80.608 319.374 81.152 316.11 81.152 Z M 318.414 73.568 C 321.614 73.568 324.43 72.8 326.862 71.264 C 329.358 69.664 331.278 67.488 332.622 64.736 C 334.03 61.92 334.734 58.784 334.734 55.328 C 334.734 51.936 334.062 48.896 332.718 46.208 C 331.438 43.52 329.582 41.408 327.15 39.872 C 324.718 38.272 321.87 37.472 318.606 37.472 C 315.15 37.472 312.174 38.272 309.678 39.872 C 307.246 41.472 305.358 43.648 304.014 46.4 C 302.734 49.088 302.094 52.16 302.094 55.616 C 302.094 58.944 302.734 61.984 304.014 64.736 C 305.294 67.424 307.15 69.568 309.582 71.168 C 312.014 72.768 314.958 73.568 318.414 73.568 Z M 357.821 80 L 357.821 9.92 L 366.653 9.92 L 366.653 51.584 L 380.093 51.584 L 392.957 31.04 L 402.749 31.04 L 388.829 52.928 C 393.437 54.272 397.021 56.8 399.581 60.512 C 402.205 64.16 403.517 68.416 403.517 73.28 L 403.517 80 L 394.589 80 L 394.589 73.28 C 394.589 70.592 393.981 68.192 392.765 66.08 C 391.613 63.968 389.981 62.304 387.869 61.088 C 385.757 59.808 383.325 59.168 380.573 59.168 L 366.653 59.168 L 366.653 80 L 357.821 80 Z M 416.133 80 L 416.133 31.04 L 425.061 31.04 L 425.061 80 L 416.133 80 Z M 420.645 23.264 C 419.045 23.264 417.637 22.688 416.421 21.536 C 415.269 20.32 414.693 18.912 414.693 17.312 C 414.693 15.712 415.269 14.336 416.421 13.184 C 417.637 11.968 419.045 11.36 420.645 11.36 C 422.245 11.36 423.621 11.968 424.773 13.184 C 425.989 14.336 426.597 15.712 426.597 17.312 C 426.597 18.912 425.989 20.32 424.773 21.536 C 423.621 22.688 422.245 23.264 420.645 23.264 Z" stroke-linecap="round" />
</g>
<g transform="matrix(1 0 0 1 585.78 543.96)"  >
<path style="stroke: rgb(255,255,255); stroke-width: 1; stroke-dasharray: none; stroke-linecap: butt; stroke-dashoffset: 0; stroke-linejoin: miter; stroke-miterlimit: 4; fill: rgb(13,17,23); fill-rule: nonzero; opacity: 1;" vector-effect="non-scaling-stroke"  transform=" translate(-259.58, -45.54)" d="M 94.008 80 L 94.008 31.04 L 102.936 31.04 L 102.936 80 L 94.008 80 Z M 98.52 23.264 C 96.92 23.264 95.512 22.688 94.296 21.536 C 93.144 20.32 92.568 18.912 92.568 17.312 C 92.568 15.712 93.144 14.336 94.296 13.184 C 95.512 11.968 96.92 11.36 98.52 11.36 C 100.12 11.36 101.496 11.968 102.648 13.184 C 103.864 14.336 104.472 15.712 104.472 17.312 C 104.472 18.912 103.864 20.32 102.648 21.536 C 101.496 22.688 100.12 23.264 98.52 23.264 Z M 116.883 80 L 116.883 9.92 L 125.715 9.92 L 125.715 51.584 L 139.155 51.584 L 152.019 31.04 L 161.811 31.04 L 147.891 52.928 C 152.499 54.272 156.083 56.8 158.643 60.512 C 161.267 64.16 162.579 68.416 162.579 73.28 L 162.579 80 L 153.651 80 L 153.651 73.28 C 153.651 70.592 153.043 68.192 151.827 66.08 C 150.675 63.968 149.043 62.304 146.931 61.088 C 144.819 59.808 142.387 59.168 139.635 59.168 L 125.715 59.168 L 125.715 80 L 116.883 80 Z M 195.548 81.152 C 190.812 81.152 186.716 80.032 183.26 77.792 C 179.804 75.488 177.148 72.384 175.292 68.48 C 173.436 64.576 172.508 60.256 172.508 55.52 C 172.508 50.72 173.532 46.4 175.58 42.56 C 177.628 38.656 180.572 35.584 184.412 33.344 C 188.252 31.04 192.86 29.888 198.236 29.888 C 203.42 29.888 207.868 31.008 211.58 33.248 C 215.292 35.488 218.14 38.528 220.124 42.368 C 222.172 46.208 223.196 50.496 223.196 55.232 L 223.196 80 L 214.268 80 L 214.268 70.016 L 214.076 70.016 C 213.116 71.872 211.804 73.664 210.14 75.392 C 208.54 77.056 206.524 78.432 204.092 79.52 C 201.66 80.608 198.812 81.152 195.548 81.152 Z M 197.852 73.568 C 201.052 73.568 203.868 72.8 206.3 71.264 C 208.796 69.664 210.716 67.488 212.06 64.736 C 213.468 61.92 214.172 58.784 214.172 55.328 C 214.172 51.936 213.5 48.896 212.156 46.208 C 210.876 43.52 209.02 41.408 206.588 39.872 C 204.156 38.272 201.308 37.472 198.044 37.472 C 194.588 37.472 191.612 38.272 189.116 39.872 C 186.684 41.472 184.796 43.648 183.452 46.4 C 182.172 49.088 181.532 52.16 181.532 55.616 C 181.532 58.944 182.172 61.984 183.452 64.736 C 184.732 67.424 186.588 69.568 189.02 71.168 C 191.452 72.768 194.396 73.568 197.852 73.568 Z M 248.298 80 C 244.138 80 240.842 78.752 238.41 76.256 C 235.978 73.696 234.762 70.56 234.762 66.848 C 234.762 64.48 235.242 62.464 236.202 60.8 C 237.162 59.136 238.73 57.408 240.906 55.616 L 271.338 30.464 C 272.426 29.632 273.194 28.864 273.642 28.16 C 274.09 27.456 274.314 26.592 274.314 25.568 C 274.314 24.8 274.09 24.064 273.642 23.36 C 273.194 22.656 272.618 22.08 271.914 21.632 C 271.274 21.184 270.538 20.96 269.706 20.96 L 236.874 20.96 L 236.874 12.8 L 270.57 12.8 C 273.322 12.8 275.69 13.376 277.674 14.528 C 279.722 15.68 281.258 17.248 282.282 19.232 C 283.37 21.152 283.914 23.328 283.914 25.76 C 283.914 28.128 283.402 30.24 282.378 32.096 C 281.418 33.888 279.914 35.616 277.866 37.28 L 247.434 62.336 C 246.666 62.912 246.026 63.424 245.514 63.872 C 245.066 64.32 244.746 64.8 244.554 65.312 C 244.426 65.76 244.362 66.368 244.362 67.136 C 244.362 67.904 244.554 68.672 244.938 69.44 C 245.386 70.144 245.962 70.72 246.666 71.168 C 247.434 71.616 248.298 71.84 249.258 71.84 L 283.914 71.84 L 283.914 80 L 248.298 80 Z M 316.11 81.152 C 311.374 81.152 307.278 80.032 303.822 77.792 C 300.366 75.488 297.71 72.384 295.854 68.48 C 293.998 64.576 293.07 60.256 293.07 55.52 C 293.07 50.72 294.094 46.4 296.142 42.56 C 298.19 38.656 301.134 35.584 304.974 33.344 C 308.814 31.04 313.422 29.888 318.798 29.888 C 323.982 29.888 328.43 31.008 332.142 33.248 C 335.854 35.488 338.702 38.528 340.686 42.368 C 342.734 46.208 343.758 50.496 343.758 55.232 L 343.758 80 L 334.83 80 L 334.83 70.016 L 334.638 70.016 C 333.678 71.872 332.366 73.664 330.702 75.392 C 329.102 77.056 327.086 78.432 324.654 79.52 C 322.222 80.608 319.374 81.152 316.11 81.152 Z M 318.414 73.568 C 321.614 73.568 324.43 72.8 326.862 71.264 C 329.358 69.664 331.278 67.488 332.622 64.736 C 334.03 61.92 334.734 58.784 334.734 55.328 C 334.734 51.936 334.062 48.896 332.718 46.208 C 331.438 43.52 329.582 41.408 327.15 39.872 C 324.718 38.272 321.87 37.472 318.606 37.472 C 315.15 37.472 312.174 38.272 309.678 39.872 C 307.246 41.472 305.358 43.648 304.014 46.4 C 302.734 49.088 302.094 52.16 302.094 55.616 C 302.094 58.944 302.734 61.984 304.014 64.736 C 305.294 67.424 307.15 69.568 309.582 71.168 C 312.014 72.768 314.958 73.568 318.414 73.568 Z M 357.821 80 L 357.821 9.92 L 366.653 9.92 L 366.653 51.584 L 380.093 51.584 L 392.957 31.04 L 402.749 31.04 L 388.829 52.928 C 393.437 54.272 397.021 56.8 399.581 60.512 C 402.205 64.16 403.517 68.416 403.517 73.28 L 403.517 80 L 394.589 80 L 394.589 73.28 C 394.589 70.592 393.981 68.192 392.765 66.08 C 391.613 63.968 389.981 62.304 387.869 61.088 C 385.757 59.808 383.325 59.168 380.573 59.168 L 366.653 59.168 L 366.653 80 L 357.821 80 Z M 416.133 80 L 416.133 31.04 L 425.061 31.04 L 425.061 80 L 416.133 80 Z M 420.645 23.264 C 419.045 23.264 417.637 22.688 416.421 21.536 C 415.269 20.32 414.693 18.912 414.693 17.312 C 414.693 15.712 415.269 14.336 416.421 13.184 C 417.637 11.968 419.045 11.36 420.645 11.36 C 422.245 11.36 423.621 11.968 424.773 13.184 C 425.989 14.336 426.597 15.712 426.597 17.312 C 426.597 18.912 425.989 20.32 424.773 21.536 C 423.621 22.688 422.245 23.264 420.645 23.264 Z" stroke-linecap="round" />
</g>
<g transform="matrix(NaN NaN NaN NaN 0 0)"  >
<g style=""   >
</g>
</g>
</svg>