<svg class="h-[10vw] max-h-[100px] min-h-[60px] max-w-[100vw] z-[1]" width="440" height="93" viewBox="0 0 440 93" fill="none" xmlns="http://www.w3.org/2000/svg"><path d="M3 4H73.5219C75.0701 4 76.5158 4.77374 77.3746 6.0619V6.0619C78.3672 7.55076 78.413 9.47827 77.4924 11.0127L77.4166 11.1389C76.5378 12.6037 74.9548 13.5 73.2466 13.5H41H7.92443C6.14608 13.5 4.53453 14.5473 3.81228 16.1724V16.1724C3.29515 17.3359 3.29515 18.6641 3.81228 19.8276V19.8276C4.53453 21.4527 6.14608 22.5 7.92443 22.5H61.0219C62.5701 22.5 64.0158 23.2737 64.8746 24.5619V24.5619C65.8672 26.0508 65.913 27.9783 64.9924 29.5127L64.9166 29.6389C64.0378 31.1037 62.4548 32 60.7466 32H32.5161C30.6676 32 28.9778 33.0444 28.1512 34.6977L28.0882 34.8236C27.4072 36.1856 27.4422 37.796 28.1817 39.1271V39.1271C28.9954 40.5917 30.5391 41.5 32.2145 41.5H51.1472C52.882 41.5 54.4541 42.5216 55.1586 44.1069L55.2136 44.2306C55.7115 45.3509 55.6824 46.6353 55.1341 47.7319V47.7319C54.439 49.1219 53.0183 50 51.4642 50H20.7145C19.0391 50 17.4954 50.9083 16.6817 52.3729V52.3729C15.9422 53.704 15.9072 55.3144 16.5882 56.6764L16.6512 56.8023C17.4778 58.4556 19.1676 59.5 21.0161 59.5H74.0756C75.8539 59.5 77.4655 60.5473 78.1877 62.1724V62.1724C78.7049 63.3359 78.7049 64.6641 78.1877 65.8276V65.8276C77.4655 67.4527 75.8539 68.5 74.0756 68.5H9.77191C8.33844 68.5 6.98525 69.1618 6.10518 70.2933V70.2933C4.85374 71.9023 4.79745 74.1392 5.96638 75.8091L6.05238 75.932C6.95966 77.2281 8.44225 78 10.0243 78H79" fill="none" stroke="#E7403C" stroke-width="6" pathLength="1" stroke-dashoffset="0px" stroke-dasharray="1px 1px"></path><path fill="none" d="M3 4H73.5219C75.0701 4 76.5158 4.77374 77.3746 6.0619V6.0619C78.3672 7.55076 78.413 9.47827 77.4924 11.0127L77.4166 11.1389C76.5378 12.6037 74.9548 13.5 73.2466 13.5H41H7.92443C6.14608 13.5 4.53453 14.5473 3.81228 16.1724V16.1724C3.29515 17.3359 3.29515 18.6641 3.81228 19.8276V19.8276C4.53453 21.4527 6.14608 22.5 7.92443 22.5H61.0219C62.5701 22.5 64.0158 23.2737 64.8746 24.5619V24.5619C65.8672 26.0508 65.913 27.9783 64.9924 29.5127L64.9166 29.6389C64.0378 31.1037 62.4548 32 60.7466 32H32.5161C30.6676 32 28.9778 33.0444 28.1512 34.6977L28.0882 34.8236C27.4072 36.1856 27.4422 37.796 28.1817 39.1271V39.1271C28.9954 40.5917 30.5391 41.5 32.2145 41.5H51.1472C52.882 41.5 54.4541 42.5216 55.1586 44.1069L55.2136 44.2306C55.7115 45.3509 55.6824 46.6353 55.1341 47.7319V47.7319C54.439 49.1219 53.0183 50 51.4642 50H20.7145C19.0391 50 17.4954 50.9083 16.6817 52.3729V52.3729C15.9422 53.704 15.9072 55.3144 16.5882 56.6764L16.6512 56.8023C17.4778 58.4556 19.1676 59.5 21.0161 59.5H74.0756C75.8539 59.5 77.4655 60.5473 78.1877 62.1724V62.1724C78.7049 63.3359 78.7049 64.6641 78.1877 65.8276V65.8276C77.4655 67.4527 75.8539 68.5 74.0756 68.5H9.77191C8.33844 68.5 6.98525 69.1618 6.10518 70.2933V70.2933C4.85374 71.9023 4.79745 74.1392 5.96638 75.8091L6.05238 75.932C6.95966 77.2281 8.44225 78 10.0243 78H79"></path><path d="M94.008 80V31.04H102.936V80H94.008ZM98.52 23.264C96.92 23.264 95.512 22.688 94.296 21.536C93.144 20.32 92.568 18.912 92.568 17.312C92.568 15.712 93.144 14.336 94.296 13.184C95.512 11.968 96.92 11.36 98.52 11.36C100.12 11.36 101.496 11.968 102.648 13.184C103.864 14.336 104.472 15.712 104.472 17.312C104.472 18.912 103.864 20.32 102.648 21.536C101.496 22.688 100.12 23.264 98.52 23.264ZM116.883 80V9.92H125.715V51.584H139.155L152.019 31.04H161.811L147.891 52.928C152.499 54.272 156.083 56.8 158.643 60.512C161.267 64.16 162.579 68.416 162.579 73.28V80H153.651V73.28C153.651 70.592 153.043 68.192 151.827 66.08C150.675 63.968 149.043 62.304 146.931 61.088C144.819 59.808 142.387 59.168 139.635 59.168H125.715V80H116.883ZM195.548 81.152C190.812 81.152 186.716 80.032 183.26 77.792C179.804 75.488 177.148 72.384 175.292 68.48C173.436 64.576 172.508 60.256 172.508 55.52C172.508 50.72 173.532 46.4 175.58 42.56C177.628 38.656 180.572 35.584 184.412 33.344C188.252 31.04 192.86 29.888 198.236 29.888C203.42 29.888 207.868 31.008 211.58 33.248C215.292 35.488 218.14 38.528 220.124 42.368C222.172 46.208 223.196 50.496 223.196 55.232V80H214.268V70.016H214.076C213.116 71.872 211.804 73.664 210.14 75.392C208.54 77.056 206.524 78.432 204.092 79.52C201.66 80.608 198.812 81.152 195.548 81.152ZM197.852 73.568C201.052 73.568 203.868 72.8 206.3 71.264C208.796 69.664 210.716 67.488 212.06 64.736C213.468 61.92 214.172 58.784 214.172 55.328C214.172 51.936 213.5 48.896 212.156 46.208C210.876 43.52 209.02 41.408 206.588 39.872C204.156 38.272 201.308 37.472 198.044 37.472C194.588 37.472 191.612 38.272 189.116 39.872C186.684 41.472 184.796 43.648 183.452 46.4C182.172 49.088 181.532 52.16 181.532 55.616C181.532 58.944 182.172 61.984 183.452 64.736C184.732 67.424 186.588 69.568 189.02 71.168C191.452 72.768 194.396 73.568 197.852 73.568ZM248.298 80C244.138 80 240.842 78.752 238.41 76.256C235.978 73.696 234.762 70.56 234.762 66.848C234.762 64.48 235.242 62.464 236.202 60.8C237.162 59.136 238.73 57.408 240.906 55.616L271.338 30.464C272.426 29.632 273.194 28.864 273.642 28.16C274.09 27.456 274.314 26.592 274.314 25.568C274.314 24.8 274.09 24.064 273.642 23.36C273.194 22.656 272.618 22.08 271.914 21.632C271.274 21.184 270.538 20.96 269.706 20.96H236.874V12.8H270.57C273.322 12.8 275.69 13.376 277.674 14.528C279.722 15.68 281.258 17.248 282.282 19.232C283.37 21.152 283.914 23.328 283.914 25.76C283.914 28.128 283.402 30.24 282.378 32.096C281.418 33.888 279.914 35.616 277.866 37.28L247.434 62.336C246.666 62.912 246.026 63.424 245.514 63.872C245.066 64.32 244.746 64.8 244.554 65.312C244.426 65.76 244.362 66.368 244.362 67.136C244.362 67.904 244.554 68.672 244.938 69.44C245.386 70.144 245.962 70.72 246.666 71.168C247.434 71.616 248.298 71.84 249.258 71.84H283.914V80H248.298ZM316.11 81.152C311.374 81.152 307.278 80.032 303.822 77.792C300.366 75.488 297.71 72.384 295.854 68.48C293.998 64.576 293.07 60.256 293.07 55.52C293.07 50.72 294.094 46.4 296.142 42.56C298.19 38.656 301.134 35.584 304.974 33.344C308.814 31.04 313.422 29.888 318.798 29.888C323.982 29.888 328.43 31.008 332.142 33.248C335.854 35.488 338.702 38.528 340.686 42.368C342.734 46.208 343.758 50.496 343.758 55.232V80H334.83V70.016H334.638C333.678 71.872 332.366 73.664 330.702 75.392C329.102 77.056 327.086 78.432 324.654 79.52C322.222 80.608 319.374 81.152 316.11 81.152ZM318.414 73.568C321.614 73.568 324.43 72.8 326.862 71.264C329.358 69.664 331.278 67.488 332.622 64.736C334.03 61.92 334.734 58.784 334.734 55.328C334.734 51.936 334.062 48.896 332.718 46.208C331.438 43.52 329.582 41.408 327.15 39.872C324.718 38.272 321.87 37.472 318.606 37.472C315.15 37.472 312.174 38.272 309.678 39.872C307.246 41.472 305.358 43.648 304.014 46.4C302.734 49.088 302.094 52.16 302.094 55.616C302.094 58.944 302.734 61.984 304.014 64.736C305.294 67.424 307.15 69.568 309.582 71.168C312.014 72.768 314.958 73.568 318.414 73.568ZM357.821 80V9.92H366.653V51.584H380.093L392.957 31.04H402.749L388.829 52.928C393.437 54.272 397.021 56.8 399.581 60.512C402.205 64.16 403.517 68.416 403.517 73.28V80H394.589V73.28C394.589 70.592 393.981 68.192 392.765 66.08C391.613 63.968 389.981 62.304 387.869 61.088C385.757 59.808 383.325 59.168 380.573 59.168H366.653V80H357.821ZM416.133 80V31.04H425.061V80H416.133ZM420.645 23.264C419.045 23.264 417.637 22.688 416.421 21.536C415.269 20.32 414.693 18.912 414.693 17.312C414.693 15.712 415.269 14.336 416.421 13.184C417.637 11.968 419.045 11.36 420.645 11.36C422.245 11.36 423.621 11.968 424.773 13.184C425.989 14.336 426.597 15.712 426.597 17.312C426.597 18.912 425.989 20.32 424.773 21.536C423.621 22.688 422.245 23.264 420.645 23.264Z" fill="none" stroke="#FFF" stroke-width="2" pathLength="1" stroke-dashoffset="0px" stroke-dasharray="1px 1px"></path><path fill="none" d="M94.008 80V31.04H102.936V80H94.008ZM98.52 23.264C96.92 23.264 95.512 22.688 94.296 21.536C93.144 20.32 92.568 18.912 92.568 17.312C92.568 15.712 93.144 14.336 94.296 13.184C95.512 11.968 96.92 11.36 98.52 11.36C100.12 11.36 101.496 11.968 102.648 13.184C103.864 14.336 104.472 15.712 104.472 17.312C104.472 18.912 103.864 20.32 102.648 21.536C101.496 22.688 100.12 23.264 98.52 23.264ZM116.883 80V9.92H125.715V51.584H139.155L152.019 31.04H161.811L147.891 52.928C152.499 54.272 156.083 56.8 158.643 60.512C161.267 64.16 162.579 68.416 162.579 73.28V80H153.651V73.28C153.651 70.592 153.043 68.192 151.827 66.08C150.675 63.968 149.043 62.304 146.931 61.088C144.819 59.808 142.387 59.168 139.635 59.168H125.715V80H116.883ZM195.548 81.152C190.812 81.152 186.716 80.032 183.26 77.792C179.804 75.488 177.148 72.384 175.292 68.48C173.436 64.576 172.508 60.256 172.508 55.52C172.508 50.72 173.532 46.4 175.58 42.56C177.628 38.656 180.572 35.584 184.412 33.344C188.252 31.04 192.86 29.888 198.236 29.888C203.42 29.888 207.868 31.008 211.58 33.248C215.292 35.488 218.14 38.528 220.124 42.368C222.172 46.208 223.196 50.496 223.196 55.232V80H214.268V70.016H214.076C213.116 71.872 211.804 73.664 210.14 75.392C208.54 77.056 206.524 78.432 204.092 79.52C201.66 80.608 198.812 81.152 195.548 81.152ZM197.852 73.568C201.052 73.568 203.868 72.8 206.3 71.264C208.796 69.664 210.716 67.488 212.06 64.736C213.468 61.92 214.172 58.784 214.172 55.328C214.172 51.936 213.5 48.896 212.156 46.208C210.876 43.52 209.02 41.408 206.588 39.872C204.156 38.272 201.308 37.472 198.044 37.472C194.588 37.472 191.612 38.272 189.116 39.872C186.684 41.472 184.796 43.648 183.452 46.4C182.172 49.088 181.532 52.16 181.532 55.616C181.532 58.944 182.172 61.984 183.452 64.736C184.732 67.424 186.588 69.568 189.02 71.168C191.452 72.768 194.396 73.568 197.852 73.568ZM248.298 80C244.138 80 240.842 78.752 238.41 76.256C235.978 73.696 234.762 70.56 234.762 66.848C234.762 64.48 235.242 62.464 236.202 60.8C237.162 59.136 238.73 57.408 240.906 55.616L271.338 30.464C272.426 29.632 273.194 28.864 273.642 28.16C274.09 27.456 274.314 26.592 274.314 25.568C274.314 24.8 274.09 24.064 273.642 23.36C273.194 22.656 272.618 22.08 271.914 21.632C271.274 21.184 270.538 20.96 269.706 20.96H236.874V12.8H270.57C273.322 12.8 275.69 13.376 277.674 14.528C279.722 15.68 281.258 17.248 282.282 19.232C283.37 21.152 283.914 23.328 283.914 25.76C283.914 28.128 283.402 30.24 282.378 32.096C281.418 33.888 279.914 35.616 277.866 37.28L247.434 62.336C246.666 62.912 246.026 63.424 245.514 63.872C245.066 64.32 244.746 64.8 244.554 65.312C244.426 65.76 244.362 66.368 244.362 67.136C244.362 67.904 244.554 68.672 244.938 69.44C245.386 70.144 245.962 70.72 246.666 71.168C247.434 71.616 248.298 71.84 249.258 71.84H283.914V80H248.298ZM316.11 81.152C311.374 81.152 307.278 80.032 303.822 77.792C300.366 75.488 297.71 72.384 295.854 68.48C293.998 64.576 293.07 60.256 293.07 55.52C293.07 50.72 294.094 46.4 296.142 42.56C298.19 38.656 301.134 35.584 304.974 33.344C308.814 31.04 313.422 29.888 318.798 29.888C323.982 29.888 328.43 31.008 332.142 33.248C335.854 35.488 338.702 38.528 340.686 42.368C342.734 46.208 343.758 50.496 343.758 55.232V80H334.83V70.016H334.638C333.678 71.872 332.366 73.664 330.702 75.392C329.102 77.056 327.086 78.432 324.654 79.52C322.222 80.608 319.374 81.152 316.11 81.152ZM318.414 73.568C321.614 73.568 324.43 72.8 326.862 71.264C329.358 69.664 331.278 67.488 332.622 64.736C334.03 61.92 334.734 58.784 334.734 55.328C334.734 51.936 334.062 48.896 332.718 46.208C331.438 43.52 329.582 41.408 327.15 39.872C324.718 38.272 321.87 37.472 318.606 37.472C315.15 37.472 312.174 38.272 309.678 39.872C307.246 41.472 305.358 43.648 304.014 46.4C302.734 49.088 302.094 52.16 302.094 55.616C302.094 58.944 302.734 61.984 304.014 64.736C305.294 67.424 307.15 69.568 309.582 71.168C312.014 72.768 314.958 73.568 318.414 73.568ZM357.821 80V9.92H366.653V51.584H380.093L392.957 31.04H402.749L388.829 52.928C393.437 54.272 397.021 56.8 399.581 60.512C402.205 64.16 403.517 68.416 403.517 73.28V80H394.589V73.28C394.589 70.592 393.981 68.192 392.765 66.08C391.613 63.968 389.981 62.304 387.869 61.088C385.757 59.808 383.325 59.168 380.573 59.168H366.653V80H357.821ZM416.133 80V31.04H425.061V80H416.133ZM420.645 23.264C419.045 23.264 417.637 22.688 416.421 21.536C415.269 20.32 414.693 18.912 414.693 17.312C414.693 15.712 415.269 14.336 416.421 13.184C417.637 11.968 419.045 11.36 420.645 11.36C422.245 11.36 423.621 11.968 424.773 13.184C425.989 14.336 426.597 15.712 426.597 17.312C426.597 18.912 425.989 20.32 424.773 21.536C423.621 22.688 422.245 23.264 420.645 23.264Z"></path></svg>
